<mxfile host="app.diagrams.net" modified="2023-05-31T08:55:23.271Z" agent="Mozilla/5.0 (Windows NT 10.0; Win64; x64) AppleWebKit/537.36 (KHTML, like Gecko) Chrome/113.0.0.0 Safari/537.36 Edg/113.0.1774.57" etag="D_28QLNXRvIri_lY4TwI" version="21.3.2" type="github">
  <diagram id="C5RBs43oDa-KdzZeNtuy" name="Page-1">
    <mxGraphModel dx="1619" dy="796" grid="1" gridSize="10" guides="1" tooltips="1" connect="1" arrows="1" fold="1" page="1" pageScale="1" pageWidth="827" pageHeight="1169" math="0" shadow="0">
      <root>
        <mxCell id="WIyWlLk6GJQsqaUBKTNV-0" />
        <mxCell id="WIyWlLk6GJQsqaUBKTNV-1" parent="WIyWlLk6GJQsqaUBKTNV-0" />
        <mxCell id="kAMANX2P3jgM0Xem9M4I-11" style="edgeStyle=orthogonalEdgeStyle;rounded=0;orthogonalLoop=1;jettySize=auto;html=1;exitX=0.5;exitY=1;exitDx=0;exitDy=0;entryX=0.5;entryY=0;entryDx=0;entryDy=0;" edge="1" parent="WIyWlLk6GJQsqaUBKTNV-1" source="WIyWlLk6GJQsqaUBKTNV-3" target="WIyWlLk6GJQsqaUBKTNV-6">
          <mxGeometry relative="1" as="geometry" />
        </mxCell>
        <mxCell id="WIyWlLk6GJQsqaUBKTNV-3" value="飞机起飞" style="rounded=1;whiteSpace=wrap;html=1;fontSize=12;glass=0;strokeWidth=1;shadow=0;" parent="WIyWlLk6GJQsqaUBKTNV-1" vertex="1">
          <mxGeometry x="160" y="16" width="120" height="40" as="geometry" />
        </mxCell>
        <mxCell id="kAMANX2P3jgM0Xem9M4I-12" style="edgeStyle=orthogonalEdgeStyle;rounded=0;orthogonalLoop=1;jettySize=auto;html=1;exitX=0.5;exitY=1;exitDx=0;exitDy=0;entryX=0.5;entryY=0;entryDx=0;entryDy=0;" edge="1" parent="WIyWlLk6GJQsqaUBKTNV-1" source="WIyWlLk6GJQsqaUBKTNV-6" target="kAMANX2P3jgM0Xem9M4I-2">
          <mxGeometry relative="1" as="geometry" />
        </mxCell>
        <mxCell id="kAMANX2P3jgM0Xem9M4I-13" style="edgeStyle=orthogonalEdgeStyle;rounded=0;orthogonalLoop=1;jettySize=auto;html=1;exitX=1;exitY=0.5;exitDx=0;exitDy=0;entryX=0;entryY=0.5;entryDx=0;entryDy=0;" edge="1" parent="WIyWlLk6GJQsqaUBKTNV-1" source="WIyWlLk6GJQsqaUBKTNV-6" target="WIyWlLk6GJQsqaUBKTNV-7">
          <mxGeometry relative="1" as="geometry" />
        </mxCell>
        <mxCell id="WIyWlLk6GJQsqaUBKTNV-6" value="是否上报" style="rhombus;whiteSpace=wrap;html=1;shadow=0;fontFamily=Helvetica;fontSize=12;align=center;strokeWidth=1;spacing=6;spacingTop=-4;" parent="WIyWlLk6GJQsqaUBKTNV-1" vertex="1">
          <mxGeometry x="170" y="96" width="100" height="50" as="geometry" />
        </mxCell>
        <mxCell id="WIyWlLk6GJQsqaUBKTNV-7" value="结束" style="rounded=1;whiteSpace=wrap;html=1;fontSize=12;glass=0;strokeWidth=1;shadow=0;" parent="WIyWlLk6GJQsqaUBKTNV-1" vertex="1">
          <mxGeometry x="320" y="101" width="70" height="40" as="geometry" />
        </mxCell>
        <mxCell id="kAMANX2P3jgM0Xem9M4I-5" value="" style="edgeStyle=orthogonalEdgeStyle;rounded=0;orthogonalLoop=1;jettySize=auto;html=1;" edge="1" parent="WIyWlLk6GJQsqaUBKTNV-1" source="kAMANX2P3jgM0Xem9M4I-2">
          <mxGeometry relative="1" as="geometry">
            <mxPoint x="220" y="259" as="targetPoint" />
          </mxGeometry>
        </mxCell>
        <mxCell id="kAMANX2P3jgM0Xem9M4I-2" value="获取数据" style="rounded=1;whiteSpace=wrap;html=1;fontSize=12;glass=0;strokeWidth=1;shadow=0;" vertex="1" parent="WIyWlLk6GJQsqaUBKTNV-1">
          <mxGeometry x="160" y="179" width="120" height="40" as="geometry" />
        </mxCell>
        <mxCell id="kAMANX2P3jgM0Xem9M4I-20" style="edgeStyle=orthogonalEdgeStyle;rounded=0;orthogonalLoop=1;jettySize=auto;html=1;exitX=0.5;exitY=1;exitDx=0;exitDy=0;entryX=0.5;entryY=0;entryDx=0;entryDy=0;" edge="1" parent="WIyWlLk6GJQsqaUBKTNV-1" source="kAMANX2P3jgM0Xem9M4I-6" target="kAMANX2P3jgM0Xem9M4I-10">
          <mxGeometry relative="1" as="geometry" />
        </mxCell>
        <mxCell id="kAMANX2P3jgM0Xem9M4I-29" style="edgeStyle=orthogonalEdgeStyle;rounded=0;orthogonalLoop=1;jettySize=auto;html=1;exitX=0;exitY=0.5;exitDx=0;exitDy=0;entryX=0;entryY=0.5;entryDx=0;entryDy=0;" edge="1" parent="WIyWlLk6GJQsqaUBKTNV-1" source="kAMANX2P3jgM0Xem9M4I-6" target="WIyWlLk6GJQsqaUBKTNV-6">
          <mxGeometry relative="1" as="geometry">
            <Array as="points">
              <mxPoint x="100" y="454" />
              <mxPoint x="100" y="121" />
            </Array>
          </mxGeometry>
        </mxCell>
        <mxCell id="kAMANX2P3jgM0Xem9M4I-6" value="上报成功" style="rhombus;whiteSpace=wrap;html=1;shadow=0;fontFamily=Helvetica;fontSize=12;align=center;strokeWidth=1;spacing=6;spacingTop=-4;" vertex="1" parent="WIyWlLk6GJQsqaUBKTNV-1">
          <mxGeometry x="170" y="429" width="100" height="50" as="geometry" />
        </mxCell>
        <mxCell id="kAMANX2P3jgM0Xem9M4I-10" value="缓存数据" style="whiteSpace=wrap;html=1;rounded=1;glass=0;strokeWidth=1;shadow=0;" vertex="1" parent="WIyWlLk6GJQsqaUBKTNV-1">
          <mxGeometry x="160" y="509" width="120" height="40" as="geometry" />
        </mxCell>
        <mxCell id="kAMANX2P3jgM0Xem9M4I-22" style="edgeStyle=orthogonalEdgeStyle;rounded=0;orthogonalLoop=1;jettySize=auto;html=1;exitX=0.5;exitY=1;exitDx=0;exitDy=0;entryX=0.5;entryY=0;entryDx=0;entryDy=0;" edge="1" parent="WIyWlLk6GJQsqaUBKTNV-1" source="kAMANX2P3jgM0Xem9M4I-14" target="kAMANX2P3jgM0Xem9M4I-21">
          <mxGeometry relative="1" as="geometry" />
        </mxCell>
        <mxCell id="kAMANX2P3jgM0Xem9M4I-26" style="edgeStyle=orthogonalEdgeStyle;rounded=0;orthogonalLoop=1;jettySize=auto;html=1;exitX=1;exitY=0.5;exitDx=0;exitDy=0;entryX=0;entryY=0.5;entryDx=0;entryDy=0;" edge="1" parent="WIyWlLk6GJQsqaUBKTNV-1" source="kAMANX2P3jgM0Xem9M4I-14" target="kAMANX2P3jgM0Xem9M4I-25">
          <mxGeometry relative="1" as="geometry" />
        </mxCell>
        <mxCell id="kAMANX2P3jgM0Xem9M4I-14" value="上次上报&lt;br&gt;是否成功" style="rhombus;whiteSpace=wrap;html=1;shadow=0;fontFamily=Helvetica;fontSize=12;align=center;strokeWidth=1;spacing=6;spacingTop=-4;" vertex="1" parent="WIyWlLk6GJQsqaUBKTNV-1">
          <mxGeometry x="170" y="259" width="100" height="50" as="geometry" />
        </mxCell>
        <mxCell id="kAMANX2P3jgM0Xem9M4I-24" style="edgeStyle=orthogonalEdgeStyle;rounded=0;orthogonalLoop=1;jettySize=auto;html=1;exitX=0.5;exitY=1;exitDx=0;exitDy=0;entryX=1;entryY=0.5;entryDx=0;entryDy=0;" edge="1" parent="WIyWlLk6GJQsqaUBKTNV-1" source="kAMANX2P3jgM0Xem9M4I-15" target="kAMANX2P3jgM0Xem9M4I-21">
          <mxGeometry relative="1" as="geometry" />
        </mxCell>
        <mxCell id="kAMANX2P3jgM0Xem9M4I-15" value="合并缓存数据" style="rounded=1;whiteSpace=wrap;html=1;fontSize=12;glass=0;strokeWidth=1;shadow=0;" vertex="1" parent="WIyWlLk6GJQsqaUBKTNV-1">
          <mxGeometry x="450" y="264" width="120" height="40" as="geometry" />
        </mxCell>
        <mxCell id="kAMANX2P3jgM0Xem9M4I-23" style="edgeStyle=orthogonalEdgeStyle;rounded=0;orthogonalLoop=1;jettySize=auto;html=1;exitX=0.5;exitY=1;exitDx=0;exitDy=0;entryX=0.5;entryY=0;entryDx=0;entryDy=0;" edge="1" parent="WIyWlLk6GJQsqaUBKTNV-1" source="kAMANX2P3jgM0Xem9M4I-21" target="kAMANX2P3jgM0Xem9M4I-6">
          <mxGeometry relative="1" as="geometry" />
        </mxCell>
        <mxCell id="kAMANX2P3jgM0Xem9M4I-21" value="上报数据" style="rounded=1;whiteSpace=wrap;html=1;fontSize=12;glass=0;strokeWidth=1;shadow=0;" vertex="1" parent="WIyWlLk6GJQsqaUBKTNV-1">
          <mxGeometry x="160" y="349" width="120" height="40" as="geometry" />
        </mxCell>
        <mxCell id="kAMANX2P3jgM0Xem9M4I-27" style="edgeStyle=orthogonalEdgeStyle;rounded=0;orthogonalLoop=1;jettySize=auto;html=1;exitX=1;exitY=0.5;exitDx=0;exitDy=0;entryX=0;entryY=0.5;entryDx=0;entryDy=0;" edge="1" parent="WIyWlLk6GJQsqaUBKTNV-1" source="kAMANX2P3jgM0Xem9M4I-25" target="kAMANX2P3jgM0Xem9M4I-15">
          <mxGeometry relative="1" as="geometry" />
        </mxCell>
        <mxCell id="kAMANX2P3jgM0Xem9M4I-28" style="edgeStyle=orthogonalEdgeStyle;rounded=0;orthogonalLoop=1;jettySize=auto;html=1;exitX=0.5;exitY=1;exitDx=0;exitDy=0;entryX=1;entryY=0.5;entryDx=0;entryDy=0;" edge="1" parent="WIyWlLk6GJQsqaUBKTNV-1" source="kAMANX2P3jgM0Xem9M4I-25" target="kAMANX2P3jgM0Xem9M4I-21">
          <mxGeometry relative="1" as="geometry" />
        </mxCell>
        <mxCell id="kAMANX2P3jgM0Xem9M4I-25" value="是否有&lt;br&gt;缓存数据" style="rhombus;whiteSpace=wrap;html=1;shadow=0;fontFamily=Helvetica;fontSize=12;align=center;strokeWidth=1;spacing=6;spacingTop=-4;" vertex="1" parent="WIyWlLk6GJQsqaUBKTNV-1">
          <mxGeometry x="313.5" y="259" width="100" height="50" as="geometry" />
        </mxCell>
      </root>
    </mxGraphModel>
  </diagram>
</mxfile>
